<?xml version="1.0" standalone="no"?>
<!DOCTYPE svg PUBLIC "-//W3C//DTD SVG 20010904//EN"
 "http://www.w3.org/TR/2001/REC-SVG-20010904/DTD/svg10.dtd">
<svg version="1.0" xmlns="http://www.w3.org/2000/svg"
 width="2360.000000pt" height="1890.000000pt" viewBox="0 0 2360.000000 1890.000000"
 preserveAspectRatio="xMidYMid meet">
<metadata>
Created by potrace 1.16, written by Peter Selinger 2001-2019
</metadata>
<g transform="translate(0.000000,1890.000000) scale(0.100000,-0.100000)"
fill="#000000" stroke="none">
<path d="M2605 18889 c-378 -23 -726 -112 -932 -239 -155 -95 -249 -218 -295
-387 -30 -111 -30 -326 1 -473 31 -147 38 -166 703 -1965 328 -885 801 -2166
1052 -2845 251 -679 458 -1236 460 -1237 2 -2 237 80 522 182 1010 363 1988
705 2999 1050 303 104 552 190 554 191 2 2 -56 155 -129 341 -304 776 -617
1589 -618 1603 0 8 -4 25 -7 38 -6 18 -4 22 16 22 13 0 809 -70 1769 -155 960
-85 1783 -157 1830 -160 47 -3 121 -10 165 -15 44 -6 742 -69 1550 -140 3615
-320 5523 -490 5558 -496 20 -3 37 -8 37 -11 0 -2 -163 -183 -363 -401 -1356
-1483 -4793 -5260 -6734 -7400 -326 -359 -394 -429 -401 -415 -5 10 -238 603
-517 1318 -280 715 -511 1304 -515 1308 -4 4 -319 -105 -701 -243 -2774 -1004
-6211 -2201 -8386 -2921 -123 -41 -223 -77 -223 -82 0 -4 10 -5 23 -2 12 3
836 136 1832 295 996 160 2259 363 2809 451 549 88 999 159 1000 157 1 -2 505
-1263 1120 -2803 615 -1540 1136 -2833 1157 -2873 151 -285 454 -485 839 -554
160 -28 409 -28 572 1 296 52 590 189 788 368 35 32 784 848 1665 1813 880
965 2255 2473 3056 3350 800 877 2987 3274 4859 5325 1872 2052 3430 3762
3462 3800 203 241 358 555 404 815 22 125 15 331 -15 445 -26 98 -96 247 -159
334 -209 293 -667 555 -1157 661 -154 33 -278 48 -550 65 -492 31 -1315 106
-2200 200 -1175 125 -1634 176 -1660 185 -52 16 -3653 411 -6335 694 -4332
458 -7687 774 -8490 801 -91 3 -192 7 -225 9 -33 2 -118 0 -190 -5z"/>
<path d="M8945 13375 c-255 -46 -757 -216 -1000 -337 -151 -76 -279 -166 -326
-231 -25 -35 -29 -49 -29 -108 0 -149 75 -392 223 -727 26 -56 41 -99 34 -95
-7 4 -68 44 -137 89 -334 217 -658 372 -920 441 -143 38 -318 43 -447 13 -371
-85 -786 -248 -965 -380 -125 -91 -157 -163 -115 -253 14 -29 40 -99 58 -157
40 -132 281 -834 384 -1120 448 -1249 805 -2040 1010 -2243 58 -56 89 -67 216
-74 232 -13 606 100 922 279 147 84 197 128 197 175 0 46 -61 313 -176 775
-52 207 -94 379 -94 383 0 3 19 -7 43 -23 73 -51 325 -195 512 -294 466 -247
871 -408 1027 -408 62 0 459 112 648 182 243 91 385 176 436 263 24 42 26 53
21 113 -11 134 -117 505 -312 1087 -450 1352 -954 2585 -1085 2655 -23 12 -36
12 -125 -5z"/>
<path d="M3345 11329 c-845 -113 -1545 -687 -1811 -1484 -313 -941 40 -1965
871 -2517 766 -510 1771 -482 2512 69 484 360 806 920 873 1518 24 213 7 503
-41 719 -52 233 -178 529 -313 729 -336 502 -847 838 -1441 948 -126 24 -527
35 -650 18z m409 -1674 c191 -50 351 -211 401 -402 69 -266 -109 -557 -390
-639 -317 -91 -662 170 -668 506 -2 148 53 280 163 391 133 133 323 188 494
144z"/>
</g>
</svg>
